# xmcd
#
# Track frame offsets:
#	150
#	11330
#	28370
#	42527
#	58167
#	73805
#	92820
#	110380
#	125847
#	140810
#	153037
#	166627
#	182382
#	197067
#	211225
#	227517
#	240620
#	256337
#	281987
#
# Disc length: 4131 seconds
#
# Revision: 1
# Processed by: cddbd v1.5.1PL0 Copyright (c) Steve Scherf et al.
# Submitted via: CDex 1.50Beta5
#
DISCID=12102113
DTITLE=Various Artist - 幻の名盤解放歌集 キング編 若さでムンムン
DYEAR=1993
DGENRE=Pop
TTITLE0=若さでムンムン
TTITLE1=男
TTITLE2=からっ風野郎
TTITLE3=屋台の酒
TTITLE4=バイバイ!狂育ママ
TTITLE5=秋田荷方節
TTITLE6=ボンゴ天国
TTITLE7=東京キカンボ娘
TTITLE8=ドドンパ舞妓はん
TTITLE9=ボクシング小唄
TTITLE10=すてきなハイウェイ
TTITLE11=別離のかたみ
TTITLE12=傀儡ブルース
TTITLE13=青い渡り鳥
TTITLE14=心臓破りの恋
TTITLE15=小唄ロック
TTITLE16=やったるで
TTITLE17=楢山節考
TTITLE18=羅生門
EXTD=
EXTT0=
EXTT1=
EXTT2=
EXTT3=
EXTT4=
EXTT5=
EXTT6=
EXTT7=
EXTT8=
EXTT9=
EXTT10=
EXTT11=
EXTT12=
EXTT13=
EXTT14=
EXTT15=
EXTT16=
EXTT17=
EXTT18=
PLAYORDER=
